<?xml version="1.0" standalone="no"?>
<!DOCTYPE svg PUBLIC "-//W3C//DTD SVG 20010904//EN"
 "http://www.w3.org/TR/2001/REC-SVG-20010904/DTD/svg10.dtd">
<svg version="1.0" xmlns="http://www.w3.org/2000/svg"
 width="256.000000pt" height="256.000000pt" viewBox="0 0 256.000000 256.000000"
 preserveAspectRatio="xMidYMid meet">

<g transform="translate(0.000000,256.000000) scale(0.100000,-0.100000)"
fill="#000000" stroke="none">
<path d="M1175 2534 c-205 -28 -291 -52 -429 -117 -352 -167 -596 -480 -667
-857 -19 -98 -16 -319 5 -418 71 -333 261 -602 550 -777 203 -122 404 -176
651 -176 341 1 635 121 871 356 467 464 456 1201 -23 1656 -170 162 -380 269
-618 314 -79 16 -285 27 -340 19z m528 -1027 c243 -638 257 -680 240 -693 -14
-10 -59 -13 -185 -14 l-166 0 -30 83 c-16 45 -39 112 -51 148 l-22 67 -172 7
c-95 4 -197 5 -227 3 l-55 -3 -27 -110 c-15 -60 -27 -120 -27 -132 -2 -45 -33
-53 -203 -53 -87 0 -158 3 -158 8 0 4 95 309 211 679 175 555 215 673 233 682
13 6 93 9 201 8 l179 -2 259 -678z"/>
<path d="M1232 1780 c-6 -19 -23 -78 -37 -130 -14 -52 -40 -136 -58 -187 -17
-50 -29 -94 -26 -97 2 -3 68 -2 145 1 l141 6 -55 156 c-30 86 -64 185 -76 221
l-23 65 -11 -35z"/>
</g>
</svg>
